<?xml version="1.0" standalone="no"?>
<!DOCTYPE svg PUBLIC "-//W3C//DTD SVG 1.1//EN"
  "http://www.w3.org/Graphics/SVG/1.1/DTD/svg11.dtd">
<svg width="164mm" height="131mm" viewBox="-82 -65.5 164 131" xmlns="http://www.w3.org/2000/svg" version="1.1">
	<title>svgOutput</title>
	<desc>made with tinkercad</desc>
<path d="M -81 64.5 L -81 49.152000427246094 L -81 40.959999084472656 L -81 36.86399841308594 L -81 32.768001556396484 L -81 1.1102230246251565e-16 L -81 -32.768001556396484 L -81 -36.86399841308594 L -81 -40.959999084472656 L -81 -49.152000427246094 L -81 -64.5 L -77.5 -64.5 L -65.53600311279297 -64.5 L -49.152000427246094 -64.5 L -32.768001556396484 -64.5 L -16.384000778198242 -64.5 L 0 -64.5 L 1.6109838485717773 -64.5 L 6.307077884674072 -64.5 L 11.39716911315918 -64.5 L 16.384000778198242 -64.5 L 32.768001556396484 -64.5 L 49.152000427246094 -64.5 L 65.53600311279297 -64.5 L 81 -64.5 L 81 -49.152000427246094 L 81 -40.959999084472656 L 81 -32.768001556396484 L 81 1.1102230246251565e-16 L 81 32.768001556396484 L 81 40.959999084472656 L 81 49.152000427246094 L 81 64.5 L 65.53600311279297 64.5 L 49.152000427246094 64.5 L 32.768001556396484 64.5 L 16.384000778198242 64.5 L 0 64.5 L -1.6109838485717773 64.5 L -6.307077884674072 64.5 L -11.39716911315918 64.5 L -16.384000778198242 64.5 L -32.768001556396484 64.5 L -49.152000427246094 64.5 L -65.53600311279297 64.5 L -81 64.5 M 19.481000900268555 36.72600173950195 L 19.50301170349121 36.86399841308594 L 19.55900001525879 37.21500015258789 L 19.716999053955078 37.685001373291016 L 19.948999404907227 38.12200164794922 L 20.250999450683594 38.51599884033203 L 20.613000869750977 38.854000091552734 L 21.025999069213867 39.12799835205078 L 21.47800064086914 39.33000183105469 L 21.957000732421875 39.45500183105469 L 22.451000213623047 39.5 L 22.94499969482422 39.4630012512207 L 23.426000595092773 39.345001220703125 L 23.881000518798828 39.14899826049805 L 24.576000213623047 38.779441833496094 L 32.768001556396484 34.423423767089844 L 35.881221771240234 32.768001556396484 L 41.540000915527344 29.759000778198242 L 41.957000732421875 29.490999221801758 L 42.32400131225586 29.159000396728516 L 42.63100051879883 28.770000457763672 L 42.869998931884766 28.336000442504883 L 43.03499984741211 27.868000030517578 L 43.119998931884766 27.3799991607666 L 43.12300109863281 26.885000228881836 L 43.04499816894531 26.395999908447266 L 42.88800048828125 25.926000595092773 L 42.654998779296875 25.488000869750977 L 42.354000091552734 25.094999313354492 L 41.992000579833984 24.756999969482422 L 41.71917724609375 24.576000213623047 L 41.57899856567383 24.482999801635742 L 41.12699890136719 24.280000686645508 L 40.64699935913086 24.155000686645508 L 40.15399932861328 24.111000061035156 L 39.65999984741211 24.148000717163086 L 39.17900085449219 24.266000747680664 L 38.722999572753906 24.461999893188477 L 38.50858688354492 24.576000213623047 L 32.768001556396484 27.628175735473633 L 23.10092544555664 32.768001556396484 L 21.06399917602539 33.85100173950195 L 20.648000717163086 34.11899948120117 L 20.2810001373291 34.45199966430664 L 19.972999572753906 34.840999603271484 L 19.733999252319336 35.275001525878906 L 19.56999969482422 35.742000579833984 L 19.485000610351562 36.22999954223633 L 19.481000900268555 36.72600173950195 M -3.013000011444092 -39.14899826049805 L -15.013221740722656 -32.768001556396484 L -16.384000778198242 -32.039100646972656 L -20.672000885009766 -29.759000778198242 L -21.089000701904297 -29.490999221801758 L -21.45599937438965 -29.159000396728516 L -21.76300048828125 -28.770000457763672 L -22.00200080871582 -28.336000442504883 L -22.166000366210938 -27.868000030517578 L -22.250999450683594 -27.3799991607666 L -22.2549991607666 -26.885000228881836 L -22.177000045776367 -26.395999908447266 L -22.020000457763672 -25.926000595092773 L -21.78700065612793 -25.488000869750977 L -21.486000061035156 -25.094999313354492 L -21.124000549316406 -24.756999969482422 L -20.851179122924805 -24.576000213623047 L -20.711000442504883 -24.482999801635742 L -20.259000778198242 -24.280000686645508 L -19.77899932861328 -24.155000686645508 L -19.285999298095703 -24.111000061035156 L -18.79199981689453 -24.148000717163086 L -18.309999465942383 -24.266000747680664 L -17.854999542236328 -24.461999893188477 L -17.640586853027344 -24.576000213623047 L -16.384000778198242 -25.24410629272461 L -2.2329258918762207 -32.768001556396484 L -0.19599999487400055 -33.85100173950195 L 0 -33.976966857910156 L 0.22100000083446503 -34.11899948120117 L 0.5879999995231628 -34.45199966430664 L 0.8949999809265137 -34.840999603271484 L 1.1339999437332153 -35.275001525878906 L 1.2979999780654907 -35.742000579833984 L 1.3830000162124634 -36.22999954223633 L 1.3869999647140503 -36.72600173950195 L 1.309000015258789 -37.21500015258789 L 1.1510000228881836 -37.685001373291016 L 0.9190000295639038 -38.12200164794922 L 0.6169999837875366 -38.51599884033203 L 0.2549999952316284 -38.854000091552734 L 6.7979751500548986e-15 -39.02358627319336 L -0.15700000524520874 -39.12799835205078 L -0.6100000143051147 -39.33000183105469 L -1.0889999866485596 -39.45500183105469 L -1.5829999446868896 -39.5 L -2.0769999027252197 -39.4630012512207 L -2.558000087738037 -39.345001220703125 L -3.013000011444092 -39.14899826049805 M -19.481000900268555 -36.72600173950195 L -19.50301170349121 -36.86399841308594 L -19.55900001525879 -37.21500015258789 L -19.716999053955078 -37.685001373291016 L -19.948999404907227 -38.12200164794922 L -20.250999450683594 -38.51599884033203 L -20.613000869750977 -38.854000091552734 L -21.025999069213867 -39.12799835205078 L -21.47800064086914 -39.33000183105469 L -21.957000732421875 -39.45500183105469 L -22.451000213623047 -39.5 L -22.94499969482422 -39.4630012512207 L -23.426000595092773 -39.345001220703125 L -23.881000518798828 -39.14899826049805 L -24.576000213623047 -38.779441833496094 L -32.768001556396484 -34.423423767089844 L -35.881221771240234 -32.768001556396484 L -41.540000915527344 -29.759000778198242 L -41.957000732421875 -29.490999221801758 L -42.32400131225586 -29.159000396728516 L -42.63100051879883 -28.770000457763672 L -42.869998931884766 -28.336000442504883 L -43.03499984741211 -27.868000030517578 L -43.119998931884766 -27.3799991607666 L -43.12300109863281 -26.885000228881836 L -43.04499816894531 -26.395999908447266 L -42.88800048828125 -25.926000595092773 L -42.654998779296875 -25.488000869750977 L -42.354000091552734 -25.094999313354492 L -41.992000579833984 -24.756999969482422 L -41.71917724609375 -24.576000213623047 L -41.57899856567383 -24.482999801635742 L -41.12699890136719 -24.280000686645508 L -40.64699935913086 -24.155000686645508 L -40.15399932861328 -24.111000061035156 L -39.65999984741211 -24.148000717163086 L -39.17900085449219 -24.266000747680664 L -38.722999572753906 -24.461999893188477 L -38.50858688354492 -24.576000213623047 L -32.768001556396484 -27.628175735473633 L -23.10092544555664 -32.768001556396484 L -21.06399917602539 -33.85100173950195 L -20.648000717163086 -34.11899948120117 L -20.2810001373291 -34.45199966430664 L -19.972999572753906 -34.840999603271484 L -19.733999252319336 -35.275001525878906 L -19.56999969482422 -35.742000579833984 L -19.485000610351562 -36.22999954223633 L -19.481000900268555 -36.72600173950195 M -72.53500366210938 35.314998626708984 L -72.7040023803711 35.409568786621094 L -72.72799682617188 35.42300033569336 L -72.9000015258789 35.56100082397461 L -73.04499816894531 35.72700119018555 L -73.1147232055664 35.84000015258789 L -73.16100311279297 35.915000915527344 L -73.24299621582031 36.11899948120117 L -73.28900146484375 36.334999084472656 L -73.29900360107422 36.55500030517578 L -73.27100372314453 36.77399826049805 L -73.24327850341797 36.86399841308594 L -73.20600128173828 36.98500061035156 L -73.10700225830078 37.18199920654297 L -72.97599792480469 37.35900115966797 L -72.81700134277344 37.51100158691406 L -72.7040023803711 37.58757019042969 L -72.63400268554688 37.6349983215332 L -72.43299865722656 37.72600173950195 L -72.22000122070312 37.78099822998047 L -72 37.79999923706055 L -71.77999877929688 37.78099822998047 L -71.68000030517578 37.75517654418945 L -71.56700134277344 37.72600173950195 L -71.36599731445312 37.6349983215332 L -71.18299865722656 37.51100158691406 L -71.02400207519531 37.35900115966797 L -70.89299774169922 37.18199920654297 L -70.79399871826172 36.98500061035156 L -70.75672149658203 36.86399841308594 L -70.72899627685547 36.77399826049805 L -70.70099639892578 36.55500030517578 L -70.71099853515625 36.334999084472656 L -70.75700378417969 36.11899948120117 L -70.83899688720703 35.915000915527344 L -70.8852767944336 35.84000015258789 L -70.95500183105469 35.72700119018555 L -71.0999984741211 35.56100082397461 L -71.27200317382812 35.42300033569336 L -71.46499633789062 35.314998626708984 L -71.6719970703125 35.242000579833984 L -71.68000030517578 35.24064254760742 L -71.88999938964844 35.20500183105469 L -72.11000061035156 35.20500183105469 L -72.3280029296875 35.242000579833984 L -72.53500366210938 35.314998626708984 M 40.81800079345703 38.12200164794922 L 40.959999084472656 38.3078727722168 L 41.11899948120117 38.51599884033203 L 41.48099899291992 38.854000091552734 L 41.89400100708008 39.12799835205078 L 42.34600067138672 39.33000183105469 L 42.82600021362305 39.45500183105469 L 43.319000244140625 39.5 L 43.8129997253418 39.4630012512207 L 44.29399871826172 39.345001220703125 L 44.749000549316406 39.14899826049805 L 49.152000427246094 36.80774688720703 L 56.74922180175781 32.768001556396484 L 62.40800094604492 29.759000778198242 L 62.82500076293945 29.490999221801758 L 63.19200134277344 29.159000396728516 L 63.499000549316406 28.770000457763672 L 63.737998962402344 28.336000442504883 L 63.90299987792969 27.868000030517578 L 63.987998962402344 27.3799991607666 L 63.992000579833984 26.885000228881836 L 63.91400146484375 26.395999908447266 L 63.75600051879883 25.926000595092773 L 63.52299880981445 25.488000869750977 L 63.22200012207031 25.094999313354492 L 62.86000061035156 24.756999969482422 L 62.58717727661133 24.576000213623047 L 62.446998596191406 24.482999801635742 L 61.994998931884766 24.280000686645508 L 61.51599884033203 24.155000686645508 L 61.02199935913086 24.111000061035156 L 60.52799987792969 24.148000717163086 L 60.047000885009766 24.266000747680664 L 59.59199905395508 24.461999893188477 L 59.377586364746094 24.576000213623047 L 49.152000427246094 30.012775421142578 L 43.96992492675781 32.768001556396484 L 41.93299865722656 33.85100173950195 L 41.51599884033203 34.11899948120117 L 41.14899826049805 34.45199966430664 L 40.959999084472656 34.69148254394531 L 40.84199905395508 34.840999603271484 L 40.60300064086914 35.275001525878906 L 40.4379997253418 35.742000579833984 L 40.35300064086914 36.22999954223633 L 40.349998474121094 36.72600173950195 L 40.428001403808594 37.21500015258789 L 40.584999084472656 37.685001373291016 L 40.81800079345703 38.12200164794922 M 21.124000549316406 24.756999969482422 L 20.851179122924805 24.576000213623047 L 20.711000442504883 24.482999801635742 L 20.259000778198242 24.280000686645508 L 19.77899932861328 24.155000686645508 L 19.285999298095703 24.111000061035156 L 18.79199981689453 24.148000717163086 L 18.309999465942383 24.266000747680664 L 17.854999542236328 24.461999893188477 L 17.640586853027344 24.576000213623047 L 16.384000778198242 25.24410629272461 L 2.2329258918762207 32.768001556396484 L 0.19599999487400055 33.85100173950195 L 0 33.976966857910156 L -0.22100000083446503 34.11899948120117 L -0.5879999995231628 34.45199966430664 L -0.8949999809265137 34.840999603271484 L -1.1339999437332153 35.275001525878906 L -1.2979999780654907 35.742000579833984 L -1.3830000162124634 36.22999954223633 L -1.3869999647140503 36.72600173950195 L -1.309000015258789 37.21500015258789 L -1.1510000228881836 37.685001373291016 L -0.9190000295639038 38.12200164794922 L -0.6169999837875366 38.51599884033203 L -0.2549999952316284 38.854000091552734 L -6.7979751500548986e-15 39.02358627319336 L 0.15700000524520874 39.12799835205078 L 0.6100000143051147 39.33000183105469 L 1.0889999866485596 39.45500183105469 L 1.5829999446868896 39.5 L 2.0769999027252197 39.4630012512207 L 2.558000087738037 39.345001220703125 L 3.013000011444092 39.14899826049805 L 15.013221740722656 32.768001556396484 L 16.384000778198242 32.039100646972656 L 20.672000885009766 29.759000778198242 L 21.089000701904297 29.490999221801758 L 21.45599937438965 29.159000396728516 L 21.76300048828125 28.770000457763672 L 22.00200080871582 28.336000442504883 L 22.166000366210938 27.868000030517578 L 22.250999450683594 27.3799991607666 L 22.2549991607666 26.885000228881836 L 22.177000045776367 26.395999908447266 L 22.020000457763672 25.926000595092773 L 21.78700065612793 25.488000869750977 L 21.486000061035156 25.094999313354492 L 21.124000549316406 24.756999969482422 M -57.34400177001953 37.95364761352539 L -49.152000427246094 33.597633361816406 L -47.59177780151367 32.768001556396484 L -41.93299865722656 29.759000778198242 L -41.51599884033203 29.490999221801758 L -41.14899826049805 29.159000396728516 L -40.84199905395508 28.770000457763672 L -40.60300064086914 28.336000442504883 L -40.4379997253418 27.868000030517578 L -40.35300064086914 27.3799991607666 L -40.349998474121094 26.885000228881836 L -40.428001403808594 26.395999908447266 L -40.584999084472656 25.926000595092773 L -40.81800079345703 25.488000869750977 L -41.11899948120117 25.094999313354492 L -41.48099899291992 24.756999969482422 L -41.753822326660156 24.576000213623047 L -41.89400100708008 24.482999801635742 L -42.34600067138672 24.280000686645508 L -42.82600021362305 24.155000686645508 L -43.319000244140625 24.111000061035156 L -43.8129997253418 24.148000717163086 L -44.29399871826172 24.266000747680664 L -44.749000549316406 24.461999893188477 L -44.96341323852539 24.576000213623047 L -49.152000427246094 26.803003311157227 L -60.37107467651367 32.768001556396484 L -62.40800094604492 33.85100173950195 L -62.82500076293945 34.11899948120117 L -63.19200134277344 34.45199966430664 L -63.499000549316406 34.840999603271484 L -63.737998962402344 35.275001525878906 L -63.90299987792969 35.742000579833984 L -63.987998962402344 36.22999954223633 L -63.99100112915039 36.72600173950195 L -63.969268798828125 36.86399841308594 L -63.91400146484375 37.21500015258789 L -63.75600051879883 37.685001373291016 L -63.52299880981445 38.12200164794922 L -63.22200012207031 38.51599884033203 L -62.86000061035156 38.854000091552734 L -62.446998596191406 39.12799835205078 L -61.994998931884766 39.33000183105469 L -61.51599884033203 39.45500183105469 L -61.02199935913086 39.5 L -60.52799987792969 39.4630012512207 L -60.047000885009766 39.345001220703125 L -59.59199905395508 39.14899826049805 L -57.34400177001953 37.95364761352539 M 70.04499816894531 35.72700119018555 L 69.9000015258789 35.56100082397461 L 69.72799682617188 35.42300033569336 L 69.63200378417969 35.36927795410156 L 69.53500366210938 35.314998626708984 L 69.3280029296875 35.242000579833984 L 69.11000061035156 35.20500183105469 L 68.88999938964844 35.20500183105469 L 68.6719970703125 35.242000579833984 L 68.60800170898438 35.26456832885742 L 68.46499633789062 35.314998626708984 L 68.27200317382812 35.42300033569336 L 68.0999984741211 35.56100082397461 L 67.95500183105469 35.72700119018555 L 67.8852767944336 35.84000015258789 L 67.83899688720703 35.915000915527344 L 67.75700378417969 36.11899948120117 L 67.71099853515625 36.334999084472656 L 67.70099639892578 36.55500030517578 L 67.72899627685547 36.77399826049805 L 67.75672149658203 36.86399841308594 L 67.79399871826172 36.98500061035156 L 67.89299774169922 37.18199920654297 L 68.02400207519531 37.35900115966797 L 68.18299865722656 37.51100158691406 L 68.36599731445312 37.6349983215332 L 68.56700134277344 37.72600173950195 L 68.60800170898438 37.73658752441406 L 68.77999877929688 37.78099822998047 L 69 37.79999923706055 L 69.22000122070312 37.78099822998047 L 69.43299865722656 37.72600173950195 L 69.63200378417969 37.63590621948242 L 69.63400268554688 37.6349983215332 L 69.81700134277344 37.51100158691406 L 69.97599792480469 37.35900115966797 L 70.10700225830078 37.18199920654297 L 70.20600128173828 36.98500061035156 L 70.24327850341797 36.86399841308594 L 70.27100372314453 36.77399826049805 L 70.29900360107422 36.55500030517578 L 70.28900146484375 36.334999084472656 L 70.24299621582031 36.11899948120117 L 70.16100311279297 35.915000915527344 L 70.1147232055664 35.84000015258789 L 70.04499816894531 35.72700119018555 M 2.558000087738037 -24.266000747680664 L 3.013000011444092 -24.461999893188477 L 16.384000778198242 -31.57114028930664 L 18.635074615478516 -32.768001556396484 L 20.672000885009766 -33.85100173950195 L 21.089000701904297 -34.11899948120117 L 21.45599937438965 -34.45199966430664 L 21.76300048828125 -34.840999603271484 L 22.00200080871582 -35.275001525878906 L 22.166000366210938 -35.742000579833984 L 22.250999450683594 -36.22999954223633 L 22.2549991607666 -36.72600173950195 L 22.232988357543945 -36.86399841308594 L 22.177000045776367 -37.21500015258789 L 22.020000457763672 -37.685001373291016 L 21.78700065612793 -38.12200164794922 L 21.486000061035156 -38.51599884033203 L 21.124000549316406 -38.854000091552734 L 20.711000442504883 -39.12799835205078 L 20.259000778198242 -39.33000183105469 L 19.77899932861328 -39.45500183105469 L 19.285999298095703 -39.5 L 18.79199981689453 -39.4630012512207 L 18.309999465942383 -39.345001220703125 L 17.854999542236328 -39.14899826049805 L 16.384000778198242 -38.3668098449707 L 5.85477876663208 -32.768001556396484 L 0.19599999487400055 -29.759000778198242 L 0 -29.633033752441406 L -0.22100000083446503 -29.490999221801758 L -0.5879999995231628 -29.159000396728516 L -0.8949999809265137 -28.770000457763672 L -1.1339999437332153 -28.336000442504883 L -1.2979999780654907 -27.868000030517578 L -1.3830000162124634 -27.3799991607666 L -1.3869999647140503 -26.885000228881836 L -1.309000015258789 -26.395999908447266 L -1.1510000228881836 -25.926000595092773 L -0.9190000295639038 -25.488000869750977 L -0.6169999837875366 -25.094999313354492 L -0.2549999952316284 -24.756999969482422 L 0 -24.587411880493164 L 0.15700000524520874 -24.482999801635742 L 0.6100000143051147 -24.280000686645508 L 1.0889999866485596 -24.155000686645508 L 1.5829999446868896 -24.111000061035156 L 2.0769999027252197 -24.148000717163086 L 2.558000087738037 -24.266000747680664 M -40.81800079345703 -38.12200164794922 L -40.959999084472656 -38.3078727722168 L -41.11899948120117 -38.51599884033203 L -41.48099899291992 -38.854000091552734 L -41.89400100708008 -39.12799835205078 L -42.34600067138672 -39.33000183105469 L -42.82600021362305 -39.45500183105469 L -43.319000244140625 -39.5 L -43.8129997253418 -39.4630012512207 L -44.29399871826172 -39.345001220703125 L -44.749000549316406 -39.14899826049805 L -49.152000427246094 -36.80774688720703 L -52.5 -35.02748107910156 L -56.74922180175781 -32.768001556396484 L -62.40800094604492 -29.759000778198242 L -62.82500076293945 -29.490999221801758 L -63.19200134277344 -29.159000396728516 L -63.499000549316406 -28.770000457763672 L -63.737998962402344 -28.336000442504883 L -63.90299987792969 -27.868000030517578 L -63.987998962402344 -27.3799991607666 L -63.99100112915039 -26.885000228881836 L -63.91400146484375 -26.395999908447266 L -63.75600051879883 -25.926000595092773 L -63.52299880981445 -25.488000869750977 L -63.22200012207031 -25.094999313354492 L -62.86000061035156 -24.756999969482422 L -62.58717727661133 -24.576000213623047 L -62.446998596191406 -24.482999801635742 L -61.994998931884766 -24.280000686645508 L -61.51599884033203 -24.155000686645508 L -61.02199935913086 -24.111000061035156 L -60.52799987792969 -24.148000717163086 L -60.047000885009766 -24.266000747680664 L -59.59199905395508 -24.461999893188477 L -59.377586364746094 -24.576000213623047 L -49.152000427246094 -30.012775421142578 L -43.96992492675781 -32.768001556396484 L -41.93299865722656 -33.85100173950195 L -41.51599884033203 -34.11899948120117 L -41.14899826049805 -34.45199966430664 L -40.959999084472656 -34.69148254394531 L -40.84199905395508 -34.840999603271484 L -40.60300064086914 -35.275001525878906 L -40.4379997253418 -35.742000579833984 L -40.35300064086914 -36.22999954223633 L -40.349998474121094 -36.72600173950195 L -40.428001403808594 -37.21500015258789 L -40.584999084472656 -37.685001373291016 L -40.81800079345703 -38.12200164794922 M 24.095413208007812 -24.576000213623047 L 32.768001556396484 -29.18707275390625 L 39.503074645996094 -32.768001556396484 L 40.959999084472656 -33.542625427246094 L 41.540000915527344 -33.85100173950195 L 41.957000732421875 -34.11899948120117 L 42.32400131225586 -34.45199966430664 L 42.63100051879883 -34.840999603271484 L 42.869998931884766 -35.275001525878906 L 43.03499984741211 -35.742000579833984 L 43.119998931884766 -36.22999954223633 L 43.12300109863281 -36.72600173950195 L 43.10098648071289 -36.86399841308594 L 43.04499816894531 -37.21500015258789 L 42.88800048828125 -37.685001373291016 L 42.654998779296875 -38.12200164794922 L 42.354000091552734 -38.51599884033203 L 41.992000579833984 -38.854000091552734 L 41.57899856567383 -39.12799835205078 L 41.12699890136719 -39.33000183105469 L 40.959999084472656 -39.37348937988281 L 40.64699935913086 -39.45500183105469 L 40.15399932861328 -39.5 L 39.65999984741211 -39.4630012512207 L 39.17900085449219 -39.345001220703125 L 38.722999572753906 -39.14899826049805 L 32.768001556396484 -35.982486724853516 L 26.7227783203125 -32.768001556396484 L 21.06399917602539 -29.759000778198242 L 20.648000717163086 -29.490999221801758 L 20.2810001373291 -29.159000396728516 L 19.972999572753906 -28.770000457763672 L 19.733999252319336 -28.336000442504883 L 19.56999969482422 -27.868000030517578 L 19.485000610351562 -27.3799991607666 L 19.481000900268555 -26.885000228881836 L 19.55900001525879 -26.395999908447266 L 19.716999053955078 -25.926000595092773 L 19.948999404907227 -25.488000869750977 L 20.250999450683594 -25.094999313354492 L 20.613000869750977 -24.756999969482422 L 20.885820388793945 -24.576000213623047 L 21.025999069213867 -24.482999801635742 L 21.47800064086914 -24.280000686645508 L 21.957000732421875 -24.155000686645508 L 22.451000213623047 -24.111000061035156 L 22.94499969482422 -24.148000717163086 L 23.426000595092773 -24.266000747680664 L 23.881000518798828 -24.461999893188477 L 24.095413208007812 -24.576000213623047 M -43.12300109863281 36.72600173950195 L -43.10098648071289 36.86399841308594 L -43.04499816894531 37.21500015258789 L -42.88800048828125 37.685001373291016 L -42.654998779296875 38.12200164794922 L -42.354000091552734 38.51599884033203 L -41.992000579833984 38.854000091552734 L -41.57899856567383 39.12799835205078 L -41.12699890136719 39.33000183105469 L -40.959999084472656 39.37348937988281 L -40.64699935913086 39.45500183105469 L -40.15399932861328 39.5 L -39.65999984741211 39.4630012512207 L -39.17900085449219 39.345001220703125 L -38.722999572753906 39.14899826049805 L -32.768001556396484 35.982486724853516 L -26.7227783203125 32.768001556396484 L -21.06399917602539 29.759000778198242 L -20.648000717163086 29.490999221801758 L -20.2810001373291 29.159000396728516 L -19.972999572753906 28.770000457763672 L -19.733999252319336 28.336000442504883 L -19.56999969482422 27.868000030517578 L -19.485000610351562 27.3799991607666 L -19.481000900268555 26.885000228881836 L -19.55900001525879 26.395999908447266 L -19.716999053955078 25.926000595092773 L -19.948999404907227 25.488000869750977 L -20.250999450683594 25.094999313354492 L -20.613000869750977 24.756999969482422 L -20.885820388793945 24.576000213623047 L -21.025999069213867 24.482999801635742 L -21.47800064086914 24.280000686645508 L -21.957000732421875 24.155000686645508 L -22.451000213623047 24.111000061035156 L -22.94499969482422 24.148000717163086 L -23.426000595092773 24.266000747680664 L -23.881000518798828 24.461999893188477 L -24.095413208007812 24.576000213623047 L -32.768001556396484 29.18707275390625 L -39.503074645996094 32.768001556396484 L -40.959999084472656 33.542625427246094 L -41.540000915527344 33.85100173950195 L -41.957000732421875 34.11899948120117 L -42.32400131225586 34.45199966430664 L -42.63100051879883 34.840999603271484 L -42.869998931884766 35.275001525878906 L -43.03499984741211 35.742000579833984 L -43.119998931884766 36.22999954223633 L -43.12300109863281 36.72600173950195 M 44.29399871826172 -24.266000747680664 L 44.749000549316406 -24.461999893188477 L 44.96341323852539 -24.576000213623047 L 49.152000427246094 -26.803003311157227 L 60.37107467651367 -32.768001556396484 L 62.40800094604492 -33.85100173950195 L 62.82500076293945 -34.11899948120117 L 63.19200134277344 -34.45199966430664 L 63.499000549316406 -34.840999603271484 L 63.737998962402344 -35.275001525878906 L 63.90299987792969 -35.742000579833984 L 63.987998962402344 -36.22999954223633 L 63.992000579833984 -36.72600173950195 L 63.96998596191406 -36.86399841308594 L 63.91400146484375 -37.21500015258789 L 63.75600051879883 -37.685001373291016 L 63.52299880981445 -38.12200164794922 L 63.22200012207031 -38.51599884033203 L 62.86000061035156 -38.854000091552734 L 62.446998596191406 -39.12799835205078 L 61.994998931884766 -39.33000183105469 L 61.51599884033203 -39.45500183105469 L 61.02199935913086 -39.5 L 60.52799987792969 -39.4630012512207 L 60.047000885009766 -39.345001220703125 L 59.59199905395508 -39.14899826049805 L 57.34400177001953 -37.95364761352539 L 49.152000427246094 -33.597633361816406 L 47.59177780151367 -32.768001556396484 L 41.93299865722656 -29.759000778198242 L 41.51599884033203 -29.490999221801758 L 41.14899826049805 -29.159000396728516 L 40.84199905395508 -28.770000457763672 L 40.60300064086914 -28.336000442504883 L 40.4379997253418 -27.868000030517578 L 40.35300064086914 -27.3799991607666 L 40.349998474121094 -26.885000228881836 L 40.428001403808594 -26.395999908447266 L 40.584999084472656 -25.926000595092773 L 40.81800079345703 -25.488000869750977 L 41.11899948120117 -25.094999313354492 L 41.48099899291992 -24.756999969482422 L 41.753822326660156 -24.576000213623047 L 41.89400100708008 -24.482999801635742 L 42.34600067138672 -24.280000686645508 L 42.82600021362305 -24.155000686645508 L 43.319000244140625 -24.111000061035156 L 43.8129997253418 -24.148000717163086 L 44.29399871826172 -24.266000747680664 M -71.88999938964844 -37.79499816894531 L -72.11000061035156 -37.79499816894531 L -72.3280029296875 -37.757999420166016 L -72.53500366210938 -37.685001373291016 L -72.7040023803711 -37.590431213378906 L -72.72799682617188 -37.57699966430664 L -72.9000015258789 -37.43899917602539 L -73.04499816894531 -37.27299880981445 L -73.16100311279297 -37.084999084472656 L -73.24299621582031 -36.88100051879883 L -73.24662017822266 -36.86399841308594 L -73.28900146484375 -36.665000915527344 L -73.29900360107422 -36.44499969482422 L -73.27100372314453 -36.22600173950195 L -73.20600128173828 -36.01499938964844 L -73.11805725097656 -35.84000015258789 L -73.10700225830078 -35.81800079345703 L -72.97599792480469 -35.64099884033203 L -72.81700134277344 -35.48899841308594 L -72.7040023803711 -35.41242980957031 L -72.63400268554688 -35.3650016784668 L -72.43299865722656 -35.27399826049805 L -72.22000122070312 -35.21900177001953 L -72 -35.20000076293945 L -71.77999877929688 -35.21900177001953 L -71.68000030517578 -35.24482345581055 L -71.56700134277344 -35.27399826049805 L -71.36599731445312 -35.3650016784668 L -71.18299865722656 -35.48899841308594 L -71.02400207519531 -35.64099884033203 L -70.89299774169922 -35.81800079345703 L -70.88194274902344 -35.84000015258789 L -70.79399871826172 -36.01499938964844 L -70.72899627685547 -36.22600173950195 L -70.70099639892578 -36.44499969482422 L -70.71099853515625 -36.665000915527344 L -70.75337982177734 -36.86399841308594 L -70.75700378417969 -36.88100051879883 L -70.83899688720703 -37.084999084472656 L -70.95500183105469 -37.27299880981445 L -71.0999984741211 -37.43899917602539 L -71.27200317382812 -37.57699966430664 L -71.46499633789062 -37.685001373291016 L -71.6719970703125 -37.757999420166016 L -71.68000030517578 -37.75935745239258 L -71.88999938964844 -37.79499816894531 M -2.558000087738037 24.266000747680664 L -3.013000011444092 24.461999893188477 L -16.384000778198242 31.57114028930664 L -18.635074615478516 32.768001556396484 L -20.672000885009766 33.85100173950195 L -21.089000701904297 34.11899948120117 L -21.45599937438965 34.45199966430664 L -21.76300048828125 34.840999603271484 L -22.00200080871582 35.275001525878906 L -22.166000366210938 35.742000579833984 L -22.250999450683594 36.22999954223633 L -22.2549991607666 36.72600173950195 L -22.232988357543945 36.86399841308594 L -22.177000045776367 37.21500015258789 L -22.020000457763672 37.685001373291016 L -21.78700065612793 38.12200164794922 L -21.486000061035156 38.51599884033203 L -21.124000549316406 38.854000091552734 L -20.711000442504883 39.12799835205078 L -20.259000778198242 39.33000183105469 L -19.77899932861328 39.45500183105469 L -19.285999298095703 39.5 L -18.79199981689453 39.4630012512207 L -18.309999465942383 39.345001220703125 L -17.854999542236328 39.14899826049805 L -16.384000778198242 38.3668098449707 L -5.85477876663208 32.768001556396484 L -0.19599999487400055 29.759000778198242 L 0 29.633033752441406 L 0.22100000083446503 29.490999221801758 L 0.5879999995231628 29.159000396728516 L 0.8949999809265137 28.770000457763672 L 1.1339999437332153 28.336000442504883 L 1.2979999780654907 27.868000030517578 L 1.3830000162124634 27.3799991607666 L 1.3869999647140503 26.885000228881836 L 1.309000015258789 26.395999908447266 L 1.1510000228881836 25.926000595092773 L 0.9190000295639038 25.488000869750977 L 0.6169999837875366 25.094999313354492 L 0.2549999952316284 24.756999969482422 L 0 24.587411880493164 L -0.15700000524520874 24.482999801635742 L -0.6100000143051147 24.280000686645508 L -1.0889999866485596 24.155000686645508 L -1.5829999446868896 24.111000061035156 L -2.0769999027252197 24.148000717163086 L -2.558000087738037 24.266000747680664 M 68.60800170898438 -37.73543167114258 L 68.46499633789062 -37.685001373291016 L 68.27200317382812 -37.57699966430664 L 68.0999984741211 -37.43899917602539 L 67.95500183105469 -37.27299880981445 L 67.83899688720703 -37.084999084472656 L 67.75700378417969 -36.88100051879883 L 67.75337982177734 -36.86399841308594 L 67.71099853515625 -36.665000915527344 L 67.70099639892578 -36.44499969482422 L 67.72899627685547 -36.22600173950195 L 67.79399871826172 -36.01499938964844 L 67.88194274902344 -35.84000015258789 L 67.89299774169922 -35.81800079345703 L 68.02400207519531 -35.64099884033203 L 68.18299865722656 -35.48899841308594 L 68.36599731445312 -35.3650016784668 L 68.56700134277344 -35.27399826049805 L 68.60800170898438 -35.26341247558594 L 68.77999877929688 -35.21900177001953 L 69 -35.20000076293945 L 69.22000122070312 -35.21900177001953 L 69.43299865722656 -35.27399826049805 L 69.63200378417969 -35.36409378051758 L 69.63400268554688 -35.3650016784668 L 69.81700134277344 -35.48899841308594 L 69.97599792480469 -35.64099884033203 L 70.10700225830078 -35.81800079345703 L 70.11805725097656 -35.84000015258789 L 70.20600128173828 -36.01499938964844 L 70.27100372314453 -36.22600173950195 L 70.29900360107422 -36.44499969482422 L 70.28900146484375 -36.665000915527344 L 70.24662017822266 -36.86399841308594 L 70.24299621582031 -36.88100051879883 L 70.16100311279297 -37.084999084472656 L 70.04499816894531 -37.27299880981445 L 69.9000015258789 -37.43899917602539 L 69.72799682617188 -37.57699966430664 L 69.63200378417969 -37.63072204589844 L 69.53500366210938 -37.685001373291016 L 69.3280029296875 -37.757999420166016 L 69.11000061035156 -37.79499816894531 L 68.88999938964844 -37.79499816894531 L 68.6719970703125 -37.757999420166016 L 68.60800170898438 -37.73543167114258 M -52.5 -43 L -52.5 -61 L -65.53600311279297 -61 L -77.5 -61 L -77.5 -49.152000427246094 L -77.5 -43 L -65.53600311279297 -43 L -52.5 -43 z" fill="none" stroke="rgb(255,0,0)" stroke-width="0.001mm" />
</svg>