<?xml version="1.0" standalone="no"?>
<!DOCTYPE svg PUBLIC "-//W3C//DTD SVG 1.1//EN"
  "http://www.w3.org/Graphics/SVG/1.1/DTD/svg11.dtd">
<svg width="164mm" height="131mm" viewBox="-81 -67 164 131" xmlns="http://www.w3.org/2000/svg" version="1.1">
	<title>svgOutput</title>
	<desc>made with tinkercad</desc>
<path d="M -80 63 L -80 60 L -80 49.152000427246094 L -80 40.959999084472656 L -80 32.768001556396484 L -80 24.576000213623047 L -80 16.384000778198242 L -80 1.1102230246251565e-16 L -80 -32.768001556396484 L -80 -40.959999084472656 L -80 -49.152000427246094 L -80 -63 L -80 -65.53600311279297 L -80 -66 L -75.50299835205078 -66 L -65.53600311279297 -66 L -28.5 -66 L -23.5 -66 L 0 -66 L 65.53600311279297 -66 L 78 -66 L 78.00299835205078 -66 L 82 -66 L 82 -65.53600311279297 L 82 -63 L 82 -49.152000427246094 L 82 -32.768001556396484 L 82 -16.384000778198242 L 82 1.1102230246251565e-16 L 82 16.384000778198242 L 82 32.768001556396484 L 82 49.152000427246094 L 82 63 L 79 63 L 65.53600311279297 63 L 49.152000427246094 63 L 40.959999084472656 63 L 36.86399841308594 63 L 32.768001556396484 63 L 16.384000778198242 63 L 0 63 L -16.384000778198242 63 L -32.768001556396484 63 L -49.152000427246094 63 L -65.53600311279297 63 L -80 63 M 37.375980377197266 1.768702507019043 L 37.6560173034668 1.8419973850250244 L 37.91530990600586 1.9098628759384155 L 37.94411849975586 1.9123255014419556 L 38.153507232666016 1.9123255014419556 L 38.18252944946289 1.9123255014419556 L 39.05588150024414 1.9123255014419556 L 39.08469009399414 1.9098628759384155 L 39.4186897277832 1.8224444389343262 L 39.54066848754883 1.7905181646347046 L 39.624019622802734 1.768702507019043 L 39.652008056640625 1.7614206075668335 L 39.65224075317383 1.7613167762756348 L 39.6783561706543 1.7495046854019165 L 39.89007568359375 1.631222128868103 L 40.648956298828125 1.2072539329528809 L 40.67292022705078 1.1910747289657593 L 40.69381332397461 1.1710560321807861 L 40.85345458984375 0.9898479580879213 L 40.959999084472656 0.8689075112342836 L 41.4288215637207 0.33674922585487377 L 41.446006774902344 0.31349998712539684 L 41.6026725769043 0.0031997845508159317 L 41.60429000854492 1.1102230246251565e-16 L 41.697174072265625 -0.18396884202957142 L 41.710201263427734 -0.20978660881519307 L 41.718650817871094 -0.23743146657943714 L 41.73759841918945 -0.29960766434669484 L 41.78360366821289 -0.4505796432495116 L 41.8812255859375 -0.7709205746650695 L 41.88490676879883 -0.7996246218681334 L 41.93260955810547 -1.9104112386703491 L 41.931392669677734 -1.9393006563186646 L 41.86144256591797 -2.263042688369751 L 41.85602951049805 -2.2880942821502686 L 41.813594818115234 -2.4844720363616943 L 41.8075065612793 -2.512725830078125 L 41.80747604370117 -2.512803792953491 L 41.79670333862305 -2.539576292037964 L 41.66080093383789 -2.809267282485962 L 41.60698318481445 -2.9160637855529785 L 41.29631423950195 -3.532567024230957 L 41.281166076660156 -3.5571930408477783 L 41.071556091308594 -3.795638084411621 L 40.959999084472656 -3.922541379928589 L 40.913177490234375 -3.975806951522827 L 40.89405822753906 -3.9975202083587646 L 40.77205276489258 -4.0960001945495605 L 40.459869384765625 -4.347987651824951 L 40.43738555908203 -4.366152763366699 L 40.437313079833984 -4.366194248199463 L 40.356689453125 -4.411092758178711 L 40.0227165222168 -4.597076892852783 L 39.94965362548828 -4.637764930725098 L 39.92439270019531 -4.651852130889893 L 39.92429733276367 -4.651885509490967 L 39.46939468383789 -4.8127851486206055 L 39.39868927001953 -4.837794303894043 L 39.37141418457031 -4.847433090209961 L 39.34292221069336 -4.852331638336182 L 38.23603057861328 -4.946763038635254 L 38.207115173339844 -4.946763038635254 L 37.869049072265625 -4.888723373413086 L 37.65707778930664 -4.852331638336182 L 37.62858581542969 -4.847433090209961 L 37.60131072998047 -4.837794303894043 L 37.484432220458984 -4.796453475952148 L 37.178382873535156 -4.688203811645508 L 37.07560729980469 -4.651852130889893 L 37.05034637451172 -4.637764930725098 L 36.86399841308594 -4.512024402618408 L 36.24745178222656 -4.0960001945495605 L 36.128421783447266 -4.015685558319092 L 36.10594177246094 -3.9975202083587646 L 35.791866302490234 -3.6402359008789062 L 35.737953186035156 -3.578906536102295 L 35.718833923339844 -3.5571930408477783 L 35.7187614440918 -3.5570764541625977 L 35.70368576049805 -3.532567024230957 L 35.59524917602539 -3.317380666732788 L 35.20329666137695 -2.539576292037964 L 35.19252395629883 -2.512803792953491 L 35.1924934387207 -2.512725830078125 L 35.186405181884766 -2.4844720363616943 L 35.11897659301758 -2.172405481338501 L 35.09150314331055 -2.045255661010742 L 35.068607330322266 -1.9393006563186646 L 35.06739044189453 -1.9104112386703491 L 35.078956604003906 -1.6411007642745972 L 35.11509323120117 -0.7996246218681334 L 35.1187744140625 -0.7709205746650695 L 35.197967529296875 -0.5110414028167723 L 35.20817947387695 -0.477540761232376 L 35.281349182128906 -0.23743146657943714 L 35.289798736572266 -0.20978660881519307 L 35.302825927734375 -0.18396884202957142 L 35.41619873046875 1.1102230246251565e-16 L 35.885963439941406 0.7622928619384767 L 35.90314865112305 0.7855420708656312 L 36.13174057006836 1.0041958093643188 L 36.30618667602539 1.1710560321807861 L 36.32707977294922 1.1910747289657593 L 36.32720184326172 1.191157579421997 L 36.351043701171875 1.2072539329528809 L 36.61506271362305 1.3547542095184326 L 36.718082427978516 1.4123107194900513 L 36.86399841308594 1.4938303232192993 L 37.3216438293457 1.7495046854019165 L 37.347991943359375 1.7614206075668335 L 37.375980377197266 1.768702507019043 M -36.735477447509766 -4.941864490509033 L -36.792884826660156 -4.946763038635254 L -36.82141876220703 -4.941864490509033 L -36.86399841308594 -4.934554100036621 L -37.34292221069336 -4.852331638336182 L -37.37141418457031 -4.847433090209961 L -37.39868927001953 -4.837794303894043 L -37.44343185424805 -4.817594528198242 L -37.67381286621094 -4.713578701019287 L -38.274715423583984 -4.442277908325195 L -38.41212463378906 -4.380239963531494 L -38.43738555908203 -4.366152763366699 L -38.7071647644043 -4.148395538330078 L -38.77207565307617 -4.0960001945495605 L -38.871578216552734 -4.015685558319092 L -38.89405822753906 -3.9975202083587646 L -38.913177490234375 -3.975806951522827 L -39.05550765991211 -3.783090353012085 L -39.57322311401367 -3.0821151733398438 L -39.58820343017578 -3.057760000228882 L -39.5883674621582 -3.0574891567230225 L -39.71854019165039 -2.733888626098633 L -39.767826080322266 -2.611363649368286 L -39.79670333862305 -2.539576292037964 L -39.8075065612793 -2.512725830078125 L -39.813594818115234 -2.4844720363616943 L -39.83456039428711 -2.3208091259002686 L -39.95475769042969 -1.3824470043182373 L -39.95597457885742 -1.3535575866699219 L -39.89506530761719 -0.8787906765937804 L -39.88490676879883 -0.7996246218681334 L -39.8812255859375 -0.7709205746650695 L -39.8812255859375 -0.7709097862243651 L -39.872779846191406 -0.7432757019996642 L -39.74062728881836 -0.3096196651458739 L -39.710201263427734 -0.20978660881519307 L -39.697174072265625 -0.18396884202957142 L -39.58380126953125 1.1102230246251565e-16 L -39.571468353271484 0.0200145896524192 L -39.114036560058594 0.7622928619384767 L -39.09685134887695 0.7855420708656312 L -39.075958251953125 0.8055607676506044 L -38.86820602416992 1.0042798519134521 L -38.67292022705078 1.1910747289657593 L -38.648956298828125 1.2072539329528809 L -38.38493728637695 1.3547542095184326 L -38.281917572021484 1.4123107194900513 L -37.6783561706543 1.7495046854019165 L -37.65224075317383 1.7613167762756348 L -37.652008056640625 1.7614206075668335 L -37.624019622802734 1.768702507019043 L -37.3439826965332 1.8419973850250244 L -37.08469009399414 1.9098628759384155 L -37.05588150024414 1.9123255014419556 L -36.86399841308594 1.9123255014419556 L -36.787044525146484 1.9123255014419556 L -36.49509811401367 1.9123255014419556 L -35.94411849975586 1.9123255014419556 L -35.91530990600586 1.9098628759384155 L -35.88732147216797 1.902580976486206 L -35.68594741821289 1.8498753309249878 L -35.347991943359375 1.7614206075668335 L -35.3216438293457 1.7495046854019165 L -34.351043701171875 1.2072539329528809 L -34.32707977294922 1.1910747289657593 L -34.07480239868164 0.9497666358947755 L -33.97779083251953 0.8569714426994325 L -33.924041748046875 0.8055607676506044 L -33.90314865112305 0.7855420708656312 L -33.885963439941406 0.7622928619384767 L -33.76030349731445 0.5583822131156922 L -33.41619873046875 1.1102230246251565e-16 L -33.302825927734375 -0.18396884202957142 L -33.289798736572266 -0.20978660881519307 L -33.18925094604492 -0.5397244095802306 L -33.152069091796875 -0.661737561225891 L -33.127220153808594 -0.7432757019996642 L -33.1187744140625 -0.7709205746650695 L -33.11875534057617 -0.7710475921630858 L -33.11509323120117 -0.7996246218681334 L -33.08432388305664 -1.0394461154937744 L -33.04402542114258 -1.3535575866699219 L -33.04403305053711 -1.3537737131118774 L -33.04524230957031 -1.3824470043182373 L -33.186405181884766 -2.4844720363616943 L -33.1924934387207 -2.512725830078125 L -33.3106689453125 -2.806511402130127 L -33.40082550048828 -3.0306386947631836 L -33.4116325378418 -3.0574891567230225 L -33.663455963134766 -3.467125415802002 L -33.70368576049805 -3.532567024230957 L -33.718833923339844 -3.5571930408477783 L -33.737953186035156 -3.578906536102295 L -33.774085998535156 -3.6135480403900146 L -33.95475769042969 -3.7867677211761475 L -34.27729797363281 -4.0960001945495605 L -34.540130615234375 -4.347987651824951 L -34.56261444091797 -4.366152763366699 L -34.58787536621094 -4.380239963531494 L -34.79694366455078 -4.496668338775635 L -35.07560729980469 -4.651852130889893 L -35.102882385253906 -4.661490440368652 L -36.17862319946289 -4.941864490509033 L -36.50507736206055 -4.941864490509033 L -36.735477447509766 -4.941864490509033 M 69.55799865722656 36.05400085449219 L 69.63200378417969 36.23883819580078 L 69.78500366210938 36.62099838256836 L 69.93500518798828 36.86399841308594 L 70.10600280761719 37.14099884033203 L 70.50900268554688 37.5989990234375 L 70.98400115966797 37.983001708984375 L 71.51699829101562 38.279998779296875 L 72.09300231933594 38.48400115966797 L 72.69499969482422 38.58700180053711 L 73.30500030517578 38.58700180053711 L 73.72799682617188 38.514625549316406 L 73.90699768066406 38.48400115966797 L 74.48300170898438 38.279998779296875 L 75.01599884033203 37.983001708984375 L 75.49099731445312 37.5989990234375 L 75.89399719238281 37.14099884033203 L 76.06499481201172 36.86399841308594 L 76.21499633789062 36.62099838256836 L 76.44200134277344 36.05400085449219 L 76.57099914550781 35.457000732421875 L 76.59700012207031 34.84700012207031 L 76.59300231933594 34.816001892089844 L 76.51899719238281 34.242000579833984 L 76.33999633789062 33.65800094604492 L 76.06600189208984 33.11199951171875 L 75.81045532226562 32.768001556396484 L 75.7020034790039 32.62200164794922 L 75.26200103759766 32.19900131225586 L 74.75599670410156 31.85700035095215 L 74.1989974975586 31.606000900268555 L 73.72799682617188 31.48326873779297 L 73.60800170898438 31.45199966430664 L 73 31.399999618530273 L 72.39199829101562 31.45199966430664 L 71.8010025024414 31.606000900268555 L 71.24400329589844 31.85700035095215 L 70.73799896240234 32.19900131225586 L 70.2979965209961 32.62200164794922 L 70.18954467773438 32.768001556396484 L 69.93399810791016 33.11199951171875 L 69.66000366210938 33.65800094604492 L 69.63200378417969 33.749351501464844 L 69.48100280761719 34.242000579833984 L 69.40299987792969 34.84700012207031 L 69.42900085449219 35.457000732421875 L 69.55799865722656 36.05400085449219 M -71.44200134277344 36.05400085449219 L -71.21499633789062 36.62099838256836 L -71.06499481201172 36.86399841308594 L -70.89399719238281 37.14099884033203 L -70.49099731445312 37.5989990234375 L -70.01599884033203 37.983001708984375 L -69.63200378417969 38.19697189331055 L -69.48300170898438 38.279998779296875 L -68.90699768066406 38.48400115966797 L -68.30500030517578 38.58700180053711 L -67.69499969482422 38.58700180053711 L -67.09300231933594 38.48400115966797 L -66.51699829101562 38.279998779296875 L -65.98400115966797 37.983001708984375 L -65.53600311279297 37.620826721191406 L -65.50900268554688 37.5989990234375 L -65.10600280761719 37.14099884033203 L -64.93500518798828 36.86399841308594 L -64.78500366210938 36.62099838256836 L -64.55799865722656 36.05400085449219 L -64.42900085449219 35.457000732421875 L -64.40299987792969 34.84700012207031 L -64.48100280761719 34.242000579833984 L -64.66000366210938 33.65800094604492 L -64.93399810791016 33.11199951171875 L -65.18954467773438 32.768001556396484 L -65.2979965209961 32.62200164794922 L -65.53600311279297 32.39319610595703 L -65.73799896240234 32.19900131225586 L -66.24400329589844 31.85700035095215 L -66.8010025024414 31.606000900268555 L -67.39199829101562 31.45199966430664 L -68 31.399999618530273 L -68.60800170898438 31.45199966430664 L -69.1989974975586 31.606000900268555 L -69.63200378417969 31.801122665405273 L -69.75599670410156 31.85700035095215 L -70.26200103759766 32.19900131225586 L -70.7020034790039 32.62200164794922 L -70.81045532226562 32.768001556396484 L -71.06600189208984 33.11199951171875 L -71.33999633789062 33.65800094604492 L -71.51899719238281 34.242000579833984 L -71.59300231933594 34.816001892089844 L -71.59700012207031 34.84700012207031 L -71.57099914550781 35.457000732421875 L -71.44200134277344 36.05400085449219 M -68.90699768066406 -34.51599884033203 L -68.30500030517578 -34.41299819946289 L -67.69499969482422 -34.41299819946289 L -67.09300231933594 -34.51599884033203 L -66.51699829101562 -34.720001220703125 L -66.34471893310547 -34.816001892089844 L -65.98400115966797 -35.016998291015625 L -65.53600311279297 -35.379173278808594 L -65.50900268554688 -35.4010009765625 L -65.10600280761719 -35.85900115966797 L -64.78500366210938 -36.37900161743164 L -64.59082794189453 -36.86399841308594 L -64.55799865722656 -36.94599914550781 L -64.42900085449219 -37.542999267578125 L -64.40299987792969 -38.15299987792969 L -64.48100280761719 -38.757999420166016 L -64.66000366210938 -39.34199905395508 L -64.93399810791016 -39.88800048828125 L -65.2979965209961 -40.37799835205078 L -65.53600311279297 -40.60680389404297 L -65.73799896240234 -40.80099868774414 L -65.9732437133789 -40.959999084472656 L -66.24400329589844 -41.143001556396484 L -66.8010025024414 -41.39400100708008 L -67.39199829101562 -41.54800033569336 L -68 -41.599998474121094 L -68.60800170898438 -41.54800033569336 L -69.1989974975586 -41.39400100708008 L -69.63200378417969 -41.19887924194336 L -69.75599670410156 -41.143001556396484 L -70.0267562866211 -40.959999084472656 L -70.26200103759766 -40.80099868774414 L -70.7020034790039 -40.37799835205078 L -71.06600189208984 -39.88800048828125 L -71.33999633789062 -39.34199905395508 L -71.4718017578125 -38.9119987487793 L -71.51899719238281 -38.757999420166016 L -71.59700012207031 -38.15299987792969 L -71.57099914550781 -37.542999267578125 L -71.44200134277344 -36.94599914550781 L -71.40917205810547 -36.86399841308594 L -71.21499633789062 -36.37900161743164 L -70.89399719238281 -35.85900115966797 L -70.49099731445312 -35.4010009765625 L -70.01599884033203 -35.016998291015625 L -69.63200378417969 -34.80302810668945 L -69.48300170898438 -34.720001220703125 L -68.90699768066406 -34.51599884033203 M 76.21499633789062 -36.37900161743164 L 76.40917205810547 -36.86399841308594 L 76.44200134277344 -36.94599914550781 L 76.57099914550781 -37.542999267578125 L 76.59700012207031 -38.15299987792969 L 76.51899719238281 -38.757999420166016 L 76.4718017578125 -38.9119987487793 L 76.33999633789062 -39.34199905395508 L 76.06600189208984 -39.88800048828125 L 75.7020034790039 -40.37799835205078 L 75.26200103759766 -40.80099868774414 L 75.0267562866211 -40.959999084472656 L 74.75599670410156 -41.143001556396484 L 74.1989974975586 -41.39400100708008 L 73.72799682617188 -41.51673126220703 L 73.60800170898438 -41.54800033569336 L 73 -41.599998474121094 L 72.39199829101562 -41.54800033569336 L 71.8010025024414 -41.39400100708008 L 71.24400329589844 -41.143001556396484 L 70.9732437133789 -40.959999084472656 L 70.73799896240234 -40.80099868774414 L 70.2979965209961 -40.37799835205078 L 69.93399810791016 -39.88800048828125 L 69.66000366210938 -39.34199905395508 L 69.63200378417969 -39.250648498535156 L 69.48100280761719 -38.757999420166016 L 69.40299987792969 -38.15299987792969 L 69.42900085449219 -37.542999267578125 L 69.55799865722656 -36.94599914550781 L 69.59082794189453 -36.86399841308594 L 69.63200378417969 -36.76116180419922 L 69.78500366210938 -36.37900161743164 L 70.10600280761719 -35.85900115966797 L 70.50900268554688 -35.4010009765625 L 70.98400115966797 -35.016998291015625 L 71.34471893310547 -34.816001892089844 L 71.51699829101562 -34.720001220703125 L 72.09300231933594 -34.51599884033203 L 72.69499969482422 -34.41299819946289 L 73.30500030517578 -34.41299819946289 L 73.72799682617188 -34.485374450683594 L 73.90699768066406 -34.51599884033203 L 74.48300170898438 -34.720001220703125 L 75.01599884033203 -35.016998291015625 L 75.49099731445312 -35.4010009765625 L 75.89399719238281 -35.85900115966797 L 76.21499633789062 -36.37900161743164 z" fill="none" stroke="rgb(255,0,0)" stroke-width="0.001mm" />
</svg>